<?xml version="1.0" encoding="UTF-8" standalone="no" ?>
<!DOCTYPE svg PUBLIC "-//W3C//DTD SVG 1.1//EN" "http://www.w3.org/Graphics/SVG/1.1/DTD/svg11.dtd">
<svg xmlns="http://www.w3.org/2000/svg" xmlns:xlink="http://www.w3.org/1999/xlink" version="1.1" width="48" height="48" viewBox="0 0 48 48" xml:space="preserve">
<desc>Created with Fabric.js 5.2.4</desc>
<defs>
</defs>
<rect x="0" y="0" width="100%" height="100%" fill="transparent"></rect>
<g transform="matrix(0 0 0 0 0 0)" id="76c6ad81-b530-4ba6-a258-b5f695b11f53"  >
</g>
<g transform="matrix(1 0 0 1 24 24)" id="a58ea919-8714-4f97-8bb9-f360aea0eab3"  >
<rect style="stroke: none; stroke-width: 1; stroke-dasharray: none; stroke-linecap: butt; stroke-dashoffset: 0; stroke-linejoin: miter; stroke-miterlimit: 4; fill: rgb(255,255,255); fill-rule: nonzero; opacity: 1; visibility: hidden;" vector-effect="non-scaling-stroke"  x="-24" y="-24" rx="0" ry="0" width="48" height="48" />
</g>
<g transform="matrix(0.07 0 0 0.07 22.73 22.78)"  >
<path style="stroke: rgb(0,0,0); stroke-width: 0; stroke-dasharray: none; stroke-linecap: butt; stroke-dashoffset: 0; stroke-linejoin: miter; stroke-miterlimit: 4; fill: rgb(0,0,0); fill-rule: nonzero; opacity: 1;" vector-effect="non-scaling-stroke"  transform=" translate(-480, -585.5)" d="M 480 575 Q 414 575 372 533 Q 330 491 330 425 Q 330 359 372 317 Q 414 275 480 275 Q 546 275 588 317 Q 630 359 630 425 Q 630 491 588 533 Q 546 575 480 575 Z M 160 896 L 160 802 Q 160 764 179 737 Q 198 710 228 696 Q 295 666 356.5 651 Q 418 636 480 636 Q 542 636 603 651.5 Q 664 667 730.921 696.194 Q 762.2220000000001 710.3199999999999 781.1110000000001 737.16 Q 800 764 800 802 L 800 896 L 160 896 Z M 220 836 L 740 836 L 740 802 Q 740 786 730.5 771.5 Q 721 757 707 750 Q 643 719 590 707.5 Q 537 696 480 696 Q 423 696 369 707.5 Q 315 719 252 750 Q 238 757 229 771.5 Q 220 786 220 802 L 220 836 Z M 480 515 Q 519 515 544.5 489.5 Q 570 464 570 425 Q 570 386 544.5 360.5 Q 519 335 480 335 Q 441 335 415.5 360.5 Q 390 386 390 425 Q 390 464 415.5 489.5 Q 441 515 480 515 Z M 480 425 Z M 480 836 Z" stroke-linecap="round" />
</g>
<g transform="matrix(0.44 0 0 0.44 22.96 11.11)"  >
<g style="" vector-effect="non-scaling-stroke"   >
		<g transform="matrix(0.05 0 0 0.05 2.52 9.2)"  >
<path style="stroke: none; stroke-width: 1; stroke-dasharray: none; stroke-linecap: butt; stroke-dashoffset: 0; stroke-linejoin: miter; stroke-miterlimit: 4; fill: rgb(228,35,20); fill-rule: nonzero; opacity: 1;" vector-effect="non-scaling-stroke"  transform=" translate(-426.19, -540.14)" d="M 639.58 444.44 C 584 476.37 518.58 505.44 446.88000000000005 528.76 C 345.25000000000006 561.76 247.14000000000004 577.9399999999999 165.33000000000004 578.1899999999999 C 245.56000000000006 655.31 364.57000000000005 686.8699999999999 477.80000000000007 650.0799999999999 C 588.74 614 665.57 521.64 687.05 414.88 Q 665.18 429.67 640.56 443.88 Z" stroke-linecap="round" />
</g>
		<g transform="matrix(0.05 0 0 0.05 0.41 -0.77)"  >
<path style="stroke: none; stroke-width: 1; stroke-dasharray: none; stroke-linecap: butt; stroke-dashoffset: 0; stroke-linejoin: miter; stroke-miterlimit: 4; fill: rgb(228,35,20); fill-rule: nonzero; opacity: 1;" vector-effect="non-scaling-stroke"  transform=" translate(-380.78, -330.17)" d="M 503.69 480 C 535.9352393397747 469.5519930854507 567.5857180317197 457.35048484591294 598.5000000000005 443.44999999999993 L 598.5 297.1 L 540.33 297.1 L 540.33 262.82 L 679.49 262.82 C 678.94 261.02 678.49 259.21 677.88 257.40999999999997 C 663.4909457307632 212.87565721396712 639.2191885915938 172.1708949243769 606.8799999999999 138.3399999999999 C 545.95 142.47999999999996 476.96000000000004 155.83999999999997 405.88 178.92999999999998 C 335.88 201.67999999999998 272.95 230.92999999999998 221.62 262.82 L 326.62 262.82 L 326.62 296.58 L 231 296.58 L 231 336.04999999999995 L 315.39 336.04999999999995 L 315.39 368.75999999999993 L 231 368.75999999999993 L 231 410.8299999999999 L 330 410.8299999999999 L 330 444.5899999999999 L 189.23 444.5899999999999 L 189.23 284.42 C 111.46 340.14 69.64 401.23 85.33 449.5 C 112.34 532.64 299.65 546.3 503.69 480 Z M 359.69 305.28 C 368.24487526709447 291.0121136817831 380.6075240137831 279.4113088354506 395.39 271.78 Q 418.22999999999996 259.71 446.81 259.71 Q 470.69 259.71 490.17 267.76 C 502.77169845802786 272.8469749631959 513.9833355201988 280.85724577160113 522.88 291.13 L 495.88 316.05 Q 476.40999999999997 295.54 448.88 295.54 Q 431.48 295.54 417.98 302.81 C 409.1609345760554 307.4953955130262 401.87226820604496 314.61399300106973 396.98 323.32000000000005 Q 389.45000000000005 336.56 389.45000000000005 353.7 Q 389.45000000000005 370.59 396.98 383.82 C 401.8762041952199 392.5241126794667 409.11760022634326 399.67888914083983 417.88 404.46999999999997 Q 431.26 411.85999999999996 448.39 411.86999999999995 C 459.7758330448407 412.0443675391341 471.02425488878384 409.36633556589703 481.11 404.0799999999999 L 481.11 350.85 L 519.54 350.85 L 519.54 424.59000000000003 C 509.210991391457 432.2701091853027 497.6106389695437 438.0719778900472 485.27 441.73 C 472.5727427685902 445.67588496533244 459.35621543551173 447.6983068984738 446.06 447.73 Q 417.74 447.73 395.16 435.66 C 380.485719021396 427.97196294750967 368.2210977790027 416.37871205529257 359.72 402.16 Q 346.86 380.74 346.86 353.73 Q 346.86 326.72 359.72 305.28000000000003 Z" stroke-linecap="round" />
</g>
		<g transform="matrix(0.05 0 0 0.05 13.67 0.43)"  >
<path style="stroke: none; stroke-width: 1; stroke-dasharray: none; stroke-linecap: butt; stroke-dashoffset: 0; stroke-linejoin: miter; stroke-miterlimit: 4; fill: rgb(228,35,20); fill-rule: nonzero; opacity: 1;" vector-effect="non-scaling-stroke"  transform=" translate(-666.88, -360.1)" d="M 687.89 297.1 L 640.56 297.1 L 640.56 423.1 Q 667.0699999999999 409.28000000000003 690.56 394.51000000000005 C 694.8147192074658 362.10248427951933 693.9135717132847 329.2257886210208 687.89 297.1000000000001 Z" stroke-linecap="round" />
</g>
		<g transform="matrix(0.05 0 0 0.05 -1.93 -8.57)"  >
<path style="stroke: none; stroke-width: 1; stroke-dasharray: none; stroke-linecap: butt; stroke-dashoffset: 0; stroke-linejoin: miter; stroke-miterlimit: 4; fill: rgb(228,35,20); fill-rule: nonzero; opacity: 1;" vector-effect="non-scaling-stroke"  transform=" translate(-333.7, -170.58)" d="M 592.73 124.61 C 512.6 50.88 396.14 21.28 285.21 57.33 C 172 94.12 94.24 189.61 74.67 299.16 C 141 251.27000000000004 229.86 206.68 331.49 173.66000000000003 C 424.85 143.32 515.22 127.22 592.73 124.61 Z" stroke-linecap="round" />
</g>
</g>
</g>
</svg>